<svg xmlns:xlink="http://www.w3.org/1999/xlink" width="2.504ex" height="2.009ex" style="font-size: 15px; vertical-align: -0.671ex; margin-left: -0.052ex;" viewBox="-22.5 -576.1 1077.9 865.1" role="img" focusable="false" xmlns="http://www.w3.org/2000/svg">
<defs>
<path stroke-width="1" id="E1-MJMATHBI-70" d="M24 296Q25 302 27 312T41 350T65 397T103 435T157 452Q235 452 273 404Q336 452 409 452Q434 452 458 448T507 432T550 402T581 354T593 285Q593 221 564 159T480 53Q401 -8 302 -8Q290 -8 279 -7T259 -3T242 3T228 9T218 14T212 18L209 20Q208 19 190 -55T171 -131T198 -132H213Q240 -132 240 -150Q237 -187 223 -192Q219 -194 212 -194Q208 -194 176 -193T95 -192Q48 -192 24 -193T-3 -194Q-11 -194 -16 -190T-22 -182T-23 -176Q-20 -142 -7 -134Q-3 -132 20 -132H44L164 354Q165 357 165 372Q165 401 148 401Q113 401 90 310Q85 289 82 286T60 282H55H44Q24 282 24 296ZM465 339Q465 373 447 387T403 401Q375 401 347 387T303 360T288 341Q288 338 257 216L227 93Q248 43 306 43Q332 43 361 59T410 115Q425 147 445 224Q465 309 465 339Z"></path>
<path stroke-width="1" id="E1-MJMAIN-30" d="M96 585Q152 666 249 666Q297 666 345 640T423 548Q460 465 460 320Q460 165 417 83Q397 41 362 16T301 -15T250 -22Q224 -22 198 -16T137 16T82 83Q39 165 39 320Q39 494 96 585ZM321 597Q291 629 250 629Q208 629 178 597Q153 571 145 525T137 333Q137 175 145 125T181 46Q209 16 250 16Q290 16 318 46Q347 76 354 130T362 333Q362 478 354 524T321 597Z"></path>
</defs>
<g stroke="currentColor" fill="currentColor" stroke-width="0" transform="matrix(1 0 0 -1 0 0)">
 <use xlink:href="#E1-MJMATHBI-70" x="0" y="0"></use>
 <use transform="scale(0.707)" xlink:href="#E1-MJMAIN-30" x="850" y="-213"></use>
</g>
</svg>